<svg xmlns="http://www.w3.org/2000/svg" xmlns:xlink="http://www.w3.org/1999/xlink" version="1.1" x="0" y="0" viewBox="0 0 220 220" width="220" height="220">
  <circle xmlns="http://www.w3.org/2000/svg" cx="110.0" cy="110.0" r="107.25" fill="#FFFFFF" stroke-width="5.5" stroke="#111111"></circle>
  <g transform="translate(7.700000000000001, 7.700000000000001) scale(0.9299999999999999)">
  <g>
  <g>
  <rect x="88.77952383717728" y="3.937619185886366" width="4.713439147293939" height="4.713439147293939" fill="#111111" rx="0"></rect>
  <rect x="102.9198412790591" y="3.937619185886366" width="4.713439147293939" height="4.713439147293939" fill="#111111" rx="0"></rect>
  <rect x="126.4870370155288" y="3.937619185886366" width="4.713439147293939" height="4.713439147293939" fill="#111111" rx="0"></rect>
  <rect x="69.92576724800152" y="8.651058333180305" width="4.713439147293939" height="4.713439147293939" fill="#111111" rx="0"></rect>
  <rect x="74.63920639529546" y="8.651058333180305" width="4.713439147293939" height="4.713439147293939" fill="#111111" rx="0"></rect>
  <rect x="79.3526455425894" y="8.651058333180305" width="4.713439147293939" height="4.713439147293939" fill="#111111" rx="0"></rect>
  <rect x="88.77952383717728" y="8.651058333180305" width="4.713439147293939" height="4.713439147293939" fill="#111111" rx="0"></rect>
  <rect x="93.49296298447122" y="8.651058333180305" width="4.713439147293939" height="4.713439147293939" fill="#111111" rx="0"></rect>
  <rect x="98.20640213176516" y="8.651058333180305" width="4.713439147293939" height="4.713439147293939" fill="#111111" rx="0"></rect>
  <rect x="112.34671957364698" y="8.651058333180305" width="4.713439147293939" height="4.713439147293939" fill="#111111" rx="0"></rect>
  <rect x="121.77359786823486" y="8.651058333180305" width="4.713439147293939" height="4.713439147293939" fill="#111111" rx="0"></rect>
  <rect x="126.4870370155288" y="8.651058333180305" width="4.713439147293939" height="4.713439147293939" fill="#111111" rx="0"></rect>
  <rect x="131.20047616282272" y="8.651058333180305" width="4.713439147293939" height="4.713439147293939" fill="#111111" rx="0"></rect>
  <rect x="135.91391531011666" y="8.651058333180305" width="4.713439147293939" height="4.713439147293939" fill="#111111" rx="0"></rect>
  <rect x="140.6273544574106" y="8.651058333180305" width="4.713439147293939" height="4.713439147293939" fill="#111111" rx="0"></rect>
  <rect x="145.34079360470454" y="8.651058333180305" width="4.713439147293939" height="4.713439147293939" fill="#111111" rx="0"></rect>
  <rect x="60.49888895341364" y="13.364497480474245" width="4.713439147293939" height="4.713439147293939" fill="#111111" rx="0"></rect>
  <rect x="69.92576724800152" y="13.364497480474245" width="4.713439147293939" height="4.713439147293939" fill="#111111" rx="0"></rect>
  <rect x="74.63920639529546" y="13.364497480474245" width="4.713439147293939" height="4.713439147293939" fill="#111111" rx="0"></rect>
  <rect x="84.06608468988334" y="13.364497480474245" width="4.713439147293939" height="4.713439147293939" fill="#111111" rx="0"></rect>
  <rect x="88.77952383717728" y="13.364497480474245" width="4.713439147293939" height="4.713439147293939" fill="#111111" rx="0"></rect>
  <rect x="93.49296298447122" y="13.364497480474245" width="4.713439147293939" height="4.713439147293939" fill="#111111" rx="0"></rect>
  <rect x="98.20640213176516" y="13.364497480474245" width="4.713439147293939" height="4.713439147293939" fill="#111111" rx="0"></rect>
  <rect x="102.9198412790591" y="13.364497480474245" width="4.713439147293939" height="4.713439147293939" fill="#111111" rx="0"></rect>
  <rect x="121.77359786823486" y="13.364497480474245" width="4.713439147293939" height="4.713439147293939" fill="#111111" rx="0"></rect>
  <rect x="126.4870370155288" y="13.364497480474245" width="4.713439147293939" height="4.713439147293939" fill="#111111" rx="0"></rect>
  <rect x="131.20047616282272" y="13.364497480474245" width="4.713439147293939" height="4.713439147293939" fill="#111111" rx="0"></rect>
  <rect x="135.91391531011666" y="13.364497480474245" width="4.713439147293939" height="4.713439147293939" fill="#111111" rx="0"></rect>
  <rect x="150.05423275199848" y="13.364497480474245" width="4.713439147293939" height="4.713439147293939" fill="#111111" rx="0"></rect>
  <rect x="51.07201065882576" y="18.077936627768185" width="4.713439147293939" height="4.713439147293939" fill="#111111" rx="0"></rect>
  <rect x="65.21232810070758" y="18.077936627768185" width="4.713439147293939" height="4.713439147293939" fill="#111111" rx="0"></rect>
  <rect x="79.3526455425894" y="18.077936627768185" width="4.713439147293939" height="4.713439147293939" fill="#111111" rx="0"></rect>
  <rect x="84.06608468988334" y="18.077936627768185" width="4.713439147293939" height="4.713439147293939" fill="#111111" rx="0"></rect>
  <rect x="93.49296298447122" y="18.077936627768185" width="4.713439147293939" height="4.713439147293939" fill="#111111" rx="0"></rect>
  <rect x="107.63328042635304" y="18.077936627768185" width="4.713439147293939" height="4.713439147293939" fill="#111111" rx="0"></rect>
  <rect x="121.77359786823486" y="18.077936627768185" width="4.713439147293939" height="4.713439147293939" fill="#111111" rx="0"></rect>
  <rect x="126.4870370155288" y="18.077936627768185" width="4.713439147293939" height="4.713439147293939" fill="#111111" rx="0"></rect>
  <rect x="140.6273544574106" y="18.077936627768185" width="4.713439147293939" height="4.713439147293939" fill="#111111" rx="0"></rect>
  <rect x="145.34079360470454" y="18.077936627768185" width="4.713439147293939" height="4.713439147293939" fill="#111111" rx="0"></rect>
  <rect x="150.05423275199848" y="18.077936627768185" width="4.713439147293939" height="4.713439147293939" fill="#111111" rx="0"></rect>
  <rect x="159.48111104658636" y="18.077936627768185" width="4.713439147293939" height="4.713439147293939" fill="#111111" rx="0"></rect>
  <rect x="46.35857151153182" y="22.791375775062125" width="4.713439147293939" height="4.713439147293939" fill="#111111" rx="0"></rect>
  <rect x="51.07201065882576" y="22.791375775062125" width="4.713439147293939" height="4.713439147293939" fill="#111111" rx="0"></rect>
  <rect x="55.7854498061197" y="22.791375775062125" width="4.713439147293939" height="4.713439147293939" fill="#111111" rx="0"></rect>
  <rect x="60.49888895341364" y="22.791375775062125" width="4.713439147293939" height="4.713439147293939" fill="#111111" rx="0"></rect>
  <rect x="69.92576724800152" y="22.791375775062125" width="4.713439147293939" height="4.713439147293939" fill="#111111" rx="0"></rect>
  <rect x="74.63920639529546" y="22.791375775062125" width="4.713439147293939" height="4.713439147293939" fill="#111111" rx="0"></rect>
  <rect x="79.3526455425894" y="22.791375775062125" width="4.713439147293939" height="4.713439147293939" fill="#111111" rx="0"></rect>
  <rect x="84.06608468988334" y="22.791375775062125" width="4.713439147293939" height="4.713439147293939" fill="#111111" rx="0"></rect>
  <rect x="88.77952383717728" y="22.791375775062125" width="4.713439147293939" height="4.713439147293939" fill="#111111" rx="0"></rect>
  <rect x="98.20640213176516" y="22.791375775062125" width="4.713439147293939" height="4.713439147293939" fill="#111111" rx="0"></rect>
  <rect x="107.63328042635304" y="22.791375775062125" width="4.713439147293939" height="4.713439147293939" fill="#111111" rx="0"></rect>
  <rect x="112.34671957364698" y="22.791375775062125" width="4.713439147293939" height="4.713439147293939" fill="#111111" rx="0"></rect>
  <rect x="117.06015872094092" y="22.791375775062125" width="4.713439147293939" height="4.713439147293939" fill="#111111" rx="0"></rect>
  <rect x="145.34079360470454" y="22.791375775062125" width="4.713439147293939" height="4.713439147293939" fill="#111111" rx="0"></rect>
  <rect x="154.76767189929242" y="22.791375775062125" width="4.713439147293939" height="4.713439147293939" fill="#111111" rx="0"></rect>
  <rect x="159.48111104658636" y="22.791375775062125" width="4.713439147293939" height="4.713439147293939" fill="#111111" rx="0"></rect>
  <rect x="22.791375775062125" y="46.35857151153182" width="4.713439147293939" height="4.713439147293939" fill="#111111" rx="0"></rect>
  <rect x="192.47518507764394" y="46.35857151153182" width="4.713439147293939" height="4.713439147293939" fill="#111111" rx="0"></rect>
  <rect x="197.18862422493788" y="51.07201065882576" width="4.713439147293939" height="4.713439147293939" fill="#111111" rx="0"></rect>
  <rect x="18.077936627768185" y="55.7854498061197" width="4.713439147293939" height="4.713439147293939" fill="#111111" rx="0"></rect>
  <rect x="18.077936627768185" y="60.49888895341364" width="4.713439147293939" height="4.713439147293939" fill="#111111" rx="0"></rect>
  <rect x="22.791375775062125" y="60.49888895341364" width="4.713439147293939" height="4.713439147293939" fill="#111111" rx="0"></rect>
  <rect x="192.47518507764394" y="60.49888895341364" width="4.713439147293939" height="4.713439147293939" fill="#111111" rx="0"></rect>
  <rect x="18.077936627768185" y="65.21232810070758" width="4.713439147293939" height="4.713439147293939" fill="#111111" rx="0"></rect>
  <rect x="22.791375775062125" y="65.21232810070758" width="4.713439147293939" height="4.713439147293939" fill="#111111" rx="0"></rect>
  <rect x="8.651058333180305" y="69.92576724800152" width="4.713439147293939" height="4.713439147293939" fill="#111111" rx="0"></rect>
  <rect x="18.077936627768185" y="69.92576724800152" width="4.713439147293939" height="4.713439147293939" fill="#111111" rx="0"></rect>
  <rect x="22.791375775062125" y="69.92576724800152" width="4.713439147293939" height="4.713439147293939" fill="#111111" rx="0"></rect>
  <rect x="197.18862422493788" y="69.92576724800152" width="4.713439147293939" height="4.713439147293939" fill="#111111" rx="0"></rect>
  <rect x="13.364497480474245" y="74.63920639529546" width="4.713439147293939" height="4.713439147293939" fill="#111111" rx="0"></rect>
  <rect x="22.791375775062125" y="74.63920639529546" width="4.713439147293939" height="4.713439147293939" fill="#111111" rx="0"></rect>
  <rect x="192.47518507764394" y="74.63920639529546" width="4.713439147293939" height="4.713439147293939" fill="#111111" rx="0"></rect>
  <rect x="197.18862422493788" y="74.63920639529546" width="4.713439147293939" height="4.713439147293939" fill="#111111" rx="0"></rect>
  <rect x="201.90206337223182" y="74.63920639529546" width="4.713439147293939" height="4.713439147293939" fill="#111111" rx="0"></rect>
  <rect x="18.077936627768185" y="79.3526455425894" width="4.713439147293939" height="4.713439147293939" fill="#111111" rx="0"></rect>
  <rect x="192.47518507764394" y="79.3526455425894" width="4.713439147293939" height="4.713439147293939" fill="#111111" rx="0"></rect>
  <rect x="201.90206337223182" y="79.3526455425894" width="4.713439147293939" height="4.713439147293939" fill="#111111" rx="0"></rect>
  <rect x="13.364497480474245" y="84.06608468988334" width="4.713439147293939" height="4.713439147293939" fill="#111111" rx="0"></rect>
  <rect x="18.077936627768185" y="84.06608468988334" width="4.713439147293939" height="4.713439147293939" fill="#111111" rx="0"></rect>
  <rect x="22.791375775062125" y="84.06608468988334" width="4.713439147293939" height="4.713439147293939" fill="#111111" rx="0"></rect>
  <rect x="197.18862422493788" y="84.06608468988334" width="4.713439147293939" height="4.713439147293939" fill="#111111" rx="0"></rect>
  <rect x="201.90206337223182" y="84.06608468988334" width="4.713439147293939" height="4.713439147293939" fill="#111111" rx="0"></rect>
  <rect x="206.61550251952576" y="84.06608468988334" width="4.713439147293939" height="4.713439147293939" fill="#111111" rx="0"></rect>
  <rect x="3.937619185886366" y="88.77952383717728" width="4.713439147293939" height="4.713439147293939" fill="#111111" rx="0"></rect>
  <rect x="22.791375775062125" y="88.77952383717728" width="4.713439147293939" height="4.713439147293939" fill="#111111" rx="0"></rect>
  <rect x="192.47518507764394" y="88.77952383717728" width="4.713439147293939" height="4.713439147293939" fill="#111111" rx="0"></rect>
  <rect x="197.18862422493788" y="88.77952383717728" width="4.713439147293939" height="4.713439147293939" fill="#111111" rx="0"></rect>
  <rect x="206.61550251952576" y="88.77952383717728" width="4.713439147293939" height="4.713439147293939" fill="#111111" rx="0"></rect>
  <rect x="211.3289416668197" y="88.77952383717728" width="4.713439147293939" height="4.713439147293939" fill="#111111" rx="0"></rect>
  <rect x="3.937619185886366" y="93.49296298447122" width="4.713439147293939" height="4.713439147293939" fill="#111111" rx="0"></rect>
  <rect x="8.651058333180305" y="93.49296298447122" width="4.713439147293939" height="4.713439147293939" fill="#111111" rx="0"></rect>
  <rect x="13.364497480474245" y="93.49296298447122" width="4.713439147293939" height="4.713439147293939" fill="#111111" rx="0"></rect>
  <rect x="22.791375775062125" y="93.49296298447122" width="4.713439147293939" height="4.713439147293939" fill="#111111" rx="0"></rect>
  <rect x="201.90206337223182" y="93.49296298447122" width="4.713439147293939" height="4.713439147293939" fill="#111111" rx="0"></rect>
  <rect x="206.61550251952576" y="93.49296298447122" width="4.713439147293939" height="4.713439147293939" fill="#111111" rx="0"></rect>
  <rect x="8.651058333180305" y="98.20640213176516" width="4.713439147293939" height="4.713439147293939" fill="#111111" rx="0"></rect>
  <rect x="13.364497480474245" y="98.20640213176516" width="4.713439147293939" height="4.713439147293939" fill="#111111" rx="0"></rect>
  <rect x="201.90206337223182" y="98.20640213176516" width="4.713439147293939" height="4.713439147293939" fill="#111111" rx="0"></rect>
  <rect x="211.3289416668197" y="98.20640213176516" width="4.713439147293939" height="4.713439147293939" fill="#111111" rx="0"></rect>
  <rect x="18.077936627768185" y="102.9198412790591" width="4.713439147293939" height="4.713439147293939" fill="#111111" rx="0"></rect>
  <rect x="192.47518507764394" y="102.9198412790591" width="4.713439147293939" height="4.713439147293939" fill="#111111" rx="0"></rect>
  <rect x="201.90206337223182" y="102.9198412790591" width="4.713439147293939" height="4.713439147293939" fill="#111111" rx="0"></rect>
  <rect x="206.61550251952576" y="102.9198412790591" width="4.713439147293939" height="4.713439147293939" fill="#111111" rx="0"></rect>
  <rect x="211.3289416668197" y="102.9198412790591" width="4.713439147293939" height="4.713439147293939" fill="#111111" rx="0"></rect>
  <rect x="8.651058333180305" y="107.63328042635304" width="4.713439147293939" height="4.713439147293939" fill="#111111" rx="0"></rect>
  <rect x="18.077936627768185" y="107.63328042635304" width="4.713439147293939" height="4.713439147293939" fill="#111111" rx="0"></rect>
  <rect x="22.791375775062125" y="107.63328042635304" width="4.713439147293939" height="4.713439147293939" fill="#111111" rx="0"></rect>
  <rect x="192.47518507764394" y="107.63328042635304" width="4.713439147293939" height="4.713439147293939" fill="#111111" rx="0"></rect>
  <rect x="201.90206337223182" y="107.63328042635304" width="4.713439147293939" height="4.713439147293939" fill="#111111" rx="0"></rect>
  <rect x="8.651058333180305" y="112.34671957364698" width="4.713439147293939" height="4.713439147293939" fill="#111111" rx="0"></rect>
  <rect x="18.077936627768185" y="112.34671957364698" width="4.713439147293939" height="4.713439147293939" fill="#111111" rx="0"></rect>
  <rect x="197.18862422493788" y="112.34671957364698" width="4.713439147293939" height="4.713439147293939" fill="#111111" rx="0"></rect>
  <rect x="3.937619185886366" y="117.06015872094092" width="4.713439147293939" height="4.713439147293939" fill="#111111" rx="0"></rect>
  <rect x="13.364497480474245" y="117.06015872094092" width="4.713439147293939" height="4.713439147293939" fill="#111111" rx="0"></rect>
  <rect x="18.077936627768185" y="117.06015872094092" width="4.713439147293939" height="4.713439147293939" fill="#111111" rx="0"></rect>
  <rect x="22.791375775062125" y="117.06015872094092" width="4.713439147293939" height="4.713439147293939" fill="#111111" rx="0"></rect>
  <rect x="197.18862422493788" y="117.06015872094092" width="4.713439147293939" height="4.713439147293939" fill="#111111" rx="0"></rect>
  <rect x="201.90206337223182" y="117.06015872094092" width="4.713439147293939" height="4.713439147293939" fill="#111111" rx="0"></rect>
  <rect x="206.61550251952576" y="117.06015872094092" width="4.713439147293939" height="4.713439147293939" fill="#111111" rx="0"></rect>
  <rect x="211.3289416668197" y="117.06015872094092" width="4.713439147293939" height="4.713439147293939" fill="#111111" rx="0"></rect>
  <rect x="201.90206337223182" y="121.77359786823486" width="4.713439147293939" height="4.713439147293939" fill="#111111" rx="0"></rect>
  <rect x="8.651058333180305" y="126.4870370155288" width="4.713439147293939" height="4.713439147293939" fill="#111111" rx="0"></rect>
  <rect x="18.077936627768185" y="126.4870370155288" width="4.713439147293939" height="4.713439147293939" fill="#111111" rx="0"></rect>
  <rect x="192.47518507764394" y="126.4870370155288" width="4.713439147293939" height="4.713439147293939" fill="#111111" rx="0"></rect>
  <rect x="197.18862422493788" y="126.4870370155288" width="4.713439147293939" height="4.713439147293939" fill="#111111" rx="0"></rect>
  <rect x="201.90206337223182" y="126.4870370155288" width="4.713439147293939" height="4.713439147293939" fill="#111111" rx="0"></rect>
  <rect x="211.3289416668197" y="126.4870370155288" width="4.713439147293939" height="4.713439147293939" fill="#111111" rx="0"></rect>
  <rect x="8.651058333180305" y="131.20047616282272" width="4.713439147293939" height="4.713439147293939" fill="#111111" rx="0"></rect>
  <rect x="22.791375775062125" y="131.20047616282272" width="4.713439147293939" height="4.713439147293939" fill="#111111" rx="0"></rect>
  <rect x="192.47518507764394" y="131.20047616282272" width="4.713439147293939" height="4.713439147293939" fill="#111111" rx="0"></rect>
  <rect x="197.18862422493788" y="131.20047616282272" width="4.713439147293939" height="4.713439147293939" fill="#111111" rx="0"></rect>
  <rect x="201.90206337223182" y="131.20047616282272" width="4.713439147293939" height="4.713439147293939" fill="#111111" rx="0"></rect>
  <rect x="192.47518507764394" y="135.91391531011666" width="4.713439147293939" height="4.713439147293939" fill="#111111" rx="0"></rect>
  <rect x="8.651058333180305" y="140.6273544574106" width="4.713439147293939" height="4.713439147293939" fill="#111111" rx="0"></rect>
  <rect x="13.364497480474245" y="140.6273544574106" width="4.713439147293939" height="4.713439147293939" fill="#111111" rx="0"></rect>
  <rect x="18.077936627768185" y="140.6273544574106" width="4.713439147293939" height="4.713439147293939" fill="#111111" rx="0"></rect>
  <rect x="192.47518507764394" y="140.6273544574106" width="4.713439147293939" height="4.713439147293939" fill="#111111" rx="0"></rect>
  <rect x="201.90206337223182" y="140.6273544574106" width="4.713439147293939" height="4.713439147293939" fill="#111111" rx="0"></rect>
  <rect x="8.651058333180305" y="145.34079360470454" width="4.713439147293939" height="4.713439147293939" fill="#111111" rx="0"></rect>
  <rect x="22.791375775062125" y="145.34079360470454" width="4.713439147293939" height="4.713439147293939" fill="#111111" rx="0"></rect>
  <rect x="197.18862422493788" y="145.34079360470454" width="4.713439147293939" height="4.713439147293939" fill="#111111" rx="0"></rect>
  <rect x="206.61550251952576" y="145.34079360470454" width="4.713439147293939" height="4.713439147293939" fill="#111111" rx="0"></rect>
  <rect x="18.077936627768185" y="150.05423275199848" width="4.713439147293939" height="4.713439147293939" fill="#111111" rx="0"></rect>
  <rect x="192.47518507764394" y="150.05423275199848" width="4.713439147293939" height="4.713439147293939" fill="#111111" rx="0"></rect>
  <rect x="201.90206337223182" y="150.05423275199848" width="4.713439147293939" height="4.713439147293939" fill="#111111" rx="0"></rect>
  <rect x="13.364497480474245" y="154.76767189929242" width="4.713439147293939" height="4.713439147293939" fill="#111111" rx="0"></rect>
  <rect x="18.077936627768185" y="154.76767189929242" width="4.713439147293939" height="4.713439147293939" fill="#111111" rx="0"></rect>
  <rect x="22.791375775062125" y="154.76767189929242" width="4.713439147293939" height="4.713439147293939" fill="#111111" rx="0"></rect>
  <rect x="192.47518507764394" y="154.76767189929242" width="4.713439147293939" height="4.713439147293939" fill="#111111" rx="0"></rect>
  <rect x="201.90206337223182" y="154.76767189929242" width="4.713439147293939" height="4.713439147293939" fill="#111111" rx="0"></rect>
  <rect x="192.47518507764394" y="159.48111104658636" width="4.713439147293939" height="4.713439147293939" fill="#111111" rx="0"></rect>
  <rect x="197.18862422493788" y="159.48111104658636" width="4.713439147293939" height="4.713439147293939" fill="#111111" rx="0"></rect>
  <rect x="18.077936627768185" y="164.1945501938803" width="4.713439147293939" height="4.713439147293939" fill="#111111" rx="0"></rect>
  <rect x="22.791375775062125" y="164.1945501938803" width="4.713439147293939" height="4.713439147293939" fill="#111111" rx="0"></rect>
  <rect x="197.18862422493788" y="164.1945501938803" width="4.713439147293939" height="4.713439147293939" fill="#111111" rx="0"></rect>
  <rect x="22.791375775062125" y="168.90798934117424" width="4.713439147293939" height="4.713439147293939" fill="#111111" rx="0"></rect>
  <rect x="46.35857151153182" y="192.47518507764394" width="4.713439147293939" height="4.713439147293939" fill="#111111" rx="0"></rect>
  <rect x="55.7854498061197" y="192.47518507764394" width="4.713439147293939" height="4.713439147293939" fill="#111111" rx="0"></rect>
  <rect x="60.49888895341364" y="192.47518507764394" width="4.713439147293939" height="4.713439147293939" fill="#111111" rx="0"></rect>
  <rect x="74.63920639529546" y="192.47518507764394" width="4.713439147293939" height="4.713439147293939" fill="#111111" rx="0"></rect>
  <rect x="84.06608468988334" y="192.47518507764394" width="4.713439147293939" height="4.713439147293939" fill="#111111" rx="0"></rect>
  <rect x="88.77952383717728" y="192.47518507764394" width="4.713439147293939" height="4.713439147293939" fill="#111111" rx="0"></rect>
  <rect x="93.49296298447122" y="192.47518507764394" width="4.713439147293939" height="4.713439147293939" fill="#111111" rx="0"></rect>
  <rect x="102.9198412790591" y="192.47518507764394" width="4.713439147293939" height="4.713439147293939" fill="#111111" rx="0"></rect>
  <rect x="112.34671957364698" y="192.47518507764394" width="4.713439147293939" height="4.713439147293939" fill="#111111" rx="0"></rect>
  <rect x="117.06015872094092" y="192.47518507764394" width="4.713439147293939" height="4.713439147293939" fill="#111111" rx="0"></rect>
  <rect x="150.05423275199848" y="192.47518507764394" width="4.713439147293939" height="4.713439147293939" fill="#111111" rx="0"></rect>
  <rect x="168.90798934117424" y="192.47518507764394" width="4.713439147293939" height="4.713439147293939" fill="#111111" rx="0"></rect>
  <rect x="60.49888895341364" y="197.18862422493788" width="4.713439147293939" height="4.713439147293939" fill="#111111" rx="0"></rect>
  <rect x="84.06608468988334" y="197.18862422493788" width="4.713439147293939" height="4.713439147293939" fill="#111111" rx="0"></rect>
  <rect x="88.77952383717728" y="197.18862422493788" width="4.713439147293939" height="4.713439147293939" fill="#111111" rx="0"></rect>
  <rect x="93.49296298447122" y="197.18862422493788" width="4.713439147293939" height="4.713439147293939" fill="#111111" rx="0"></rect>
  <rect x="102.9198412790591" y="197.18862422493788" width="4.713439147293939" height="4.713439147293939" fill="#111111" rx="0"></rect>
  <rect x="107.63328042635304" y="197.18862422493788" width="4.713439147293939" height="4.713439147293939" fill="#111111" rx="0"></rect>
  <rect x="112.34671957364698" y="197.18862422493788" width="4.713439147293939" height="4.713439147293939" fill="#111111" rx="0"></rect>
  <rect x="117.06015872094092" y="197.18862422493788" width="4.713439147293939" height="4.713439147293939" fill="#111111" rx="0"></rect>
  <rect x="121.77359786823486" y="197.18862422493788" width="4.713439147293939" height="4.713439147293939" fill="#111111" rx="0"></rect>
  <rect x="126.4870370155288" y="197.18862422493788" width="4.713439147293939" height="4.713439147293939" fill="#111111" rx="0"></rect>
  <rect x="131.20047616282272" y="197.18862422493788" width="4.713439147293939" height="4.713439147293939" fill="#111111" rx="0"></rect>
  <rect x="140.6273544574106" y="197.18862422493788" width="4.713439147293939" height="4.713439147293939" fill="#111111" rx="0"></rect>
  <rect x="145.34079360470454" y="197.18862422493788" width="4.713439147293939" height="4.713439147293939" fill="#111111" rx="0"></rect>
  <rect x="74.63920639529546" y="201.90206337223182" width="4.713439147293939" height="4.713439147293939" fill="#111111" rx="0"></rect>
  <rect x="79.3526455425894" y="201.90206337223182" width="4.713439147293939" height="4.713439147293939" fill="#111111" rx="0"></rect>
  <rect x="84.06608468988334" y="201.90206337223182" width="4.713439147293939" height="4.713439147293939" fill="#111111" rx="0"></rect>
  <rect x="98.20640213176516" y="201.90206337223182" width="4.713439147293939" height="4.713439147293939" fill="#111111" rx="0"></rect>
  <rect x="107.63328042635304" y="201.90206337223182" width="4.713439147293939" height="4.713439147293939" fill="#111111" rx="0"></rect>
  <rect x="112.34671957364698" y="201.90206337223182" width="4.713439147293939" height="4.713439147293939" fill="#111111" rx="0"></rect>
  <rect x="121.77359786823486" y="201.90206337223182" width="4.713439147293939" height="4.713439147293939" fill="#111111" rx="0"></rect>
  <rect x="126.4870370155288" y="201.90206337223182" width="4.713439147293939" height="4.713439147293939" fill="#111111" rx="0"></rect>
  <rect x="131.20047616282272" y="201.90206337223182" width="4.713439147293939" height="4.713439147293939" fill="#111111" rx="0"></rect>
  <rect x="135.91391531011666" y="201.90206337223182" width="4.713439147293939" height="4.713439147293939" fill="#111111" rx="0"></rect>
  <rect x="145.34079360470454" y="201.90206337223182" width="4.713439147293939" height="4.713439147293939" fill="#111111" rx="0"></rect>
  <rect x="150.05423275199848" y="201.90206337223182" width="4.713439147293939" height="4.713439147293939" fill="#111111" rx="0"></rect>
  <rect x="69.92576724800152" y="206.61550251952576" width="4.713439147293939" height="4.713439147293939" fill="#111111" rx="0"></rect>
  <rect x="79.3526455425894" y="206.61550251952576" width="4.713439147293939" height="4.713439147293939" fill="#111111" rx="0"></rect>
  <rect x="84.06608468988334" y="206.61550251952576" width="4.713439147293939" height="4.713439147293939" fill="#111111" rx="0"></rect>
  <rect x="93.49296298447122" y="206.61550251952576" width="4.713439147293939" height="4.713439147293939" fill="#111111" rx="0"></rect>
  <rect x="98.20640213176516" y="206.61550251952576" width="4.713439147293939" height="4.713439147293939" fill="#111111" rx="0"></rect>
  <rect x="102.9198412790591" y="206.61550251952576" width="4.713439147293939" height="4.713439147293939" fill="#111111" rx="0"></rect>
  <rect x="107.63328042635304" y="206.61550251952576" width="4.713439147293939" height="4.713439147293939" fill="#111111" rx="0"></rect>
  <rect x="112.34671957364698" y="206.61550251952576" width="4.713439147293939" height="4.713439147293939" fill="#111111" rx="0"></rect>
  <rect x="121.77359786823486" y="206.61550251952576" width="4.713439147293939" height="4.713439147293939" fill="#111111" rx="0"></rect>
  <rect x="131.20047616282272" y="206.61550251952576" width="4.713439147293939" height="4.713439147293939" fill="#111111" rx="0"></rect>
  <rect x="135.91391531011666" y="206.61550251952576" width="4.713439147293939" height="4.713439147293939" fill="#111111" rx="0"></rect>
  <rect x="145.34079360470454" y="206.61550251952576" width="4.713439147293939" height="4.713439147293939" fill="#111111" rx="0"></rect>
  <rect x="88.77952383717728" y="211.3289416668197" width="4.713439147293939" height="4.713439147293939" fill="#111111" rx="0"></rect>
  <rect x="102.9198412790591" y="211.3289416668197" width="4.713439147293939" height="4.713439147293939" fill="#111111" rx="0"></rect>
  <rect x="112.34671957364698" y="211.3289416668197" width="4.713439147293939" height="4.713439147293939" fill="#111111" rx="0"></rect>
  <rect x="126.4870370155288" y="211.3289416668197" width="4.713439147293939" height="4.713439147293939" fill="#111111" rx="0"></rect>
  </g>
  </g>
  <g transform="translate(32.21825406965, 32.21825406965)">
  <g>
  <rect x="2.3567195736469695" y="2.3567195736469695" width="28.280634883763632" fill="none" height="28.280634883763632" stroke-width="4.713439147293939" stroke="#111111"></rect>
  <rect x="9.426878294587878" y="9.426878294587878" width="14.140317441881816" fill="#111111" height="14.140317441881816"></rect>
  <rect x="124.9261374032894" y="2.3567195736469695" width="28.280634883763632" fill="none" height="28.280634883763632" stroke-width="4.713439147293939" stroke="#111111"></rect>
  <rect x="131.9962961242303" y="9.426878294587878" width="14.140317441881816" fill="#111111" height="14.140317441881816"></rect>
  <rect x="2.3567195736469695" y="124.9261374032894" width="28.280634883763632" fill="none" height="28.280634883763632" stroke-width="4.713439147293939" stroke="#111111"></rect>
  <rect x="9.426878294587878" y="131.9962961242303" width="14.140317441881816" fill="#111111" height="14.140317441881816"></rect>
  </g>
  <g>
  <rect x="51.85783062023333" y="0.01" width="4.713439147293939" height="4.713439147293939" fill="#111111" rx="0"></rect>
  <rect x="56.57126976752726" y="0.01" width="4.713439147293939" height="4.713439147293939" fill="#111111" rx="0"></rect>
  <rect x="75.42502635670303" y="0.01" width="4.713439147293939" height="4.713439147293939" fill="#111111" rx="0"></rect>
  <rect x="84.85190465129091" y="0.01" width="4.713439147293939" height="4.713439147293939" fill="#111111" rx="0"></rect>
  <rect x="94.27878294587879" y="0.01" width="4.713439147293939" height="4.713439147293939" fill="#111111" rx="0"></rect>
  <rect x="103.70566124046667" y="0.01" width="4.713439147293939" height="4.713439147293939" fill="#111111" rx="0"></rect>
  <rect x="113.13253953505453" y="0.01" width="4.713439147293939" height="4.713439147293939" fill="#111111" rx="0"></rect>
  <rect x="42.43095232564545" y="4.723439147293939" width="4.713439147293939" height="4.713439147293939" fill="#111111" rx="0"></rect>
  <rect x="47.14439147293939" y="4.723439147293939" width="4.713439147293939" height="4.713439147293939" fill="#111111" rx="0"></rect>
  <rect x="65.99814806211515" y="4.723439147293939" width="4.713439147293939" height="4.713439147293939" fill="#111111" rx="0"></rect>
  <rect x="98.99222209317273" y="4.723439147293939" width="4.713439147293939" height="4.713439147293939" fill="#111111" rx="0"></rect>
  <rect x="103.70566124046667" y="4.723439147293939" width="4.713439147293939" height="4.713439147293939" fill="#111111" rx="0"></rect>
  <rect x="113.13253953505453" y="4.723439147293939" width="4.713439147293939" height="4.713439147293939" fill="#111111" rx="0"></rect>
  <rect x="37.71751317835151" y="9.436878294587878" width="4.713439147293939" height="4.713439147293939" fill="#111111" rx="0"></rect>
  <rect x="42.43095232564545" y="9.436878294587878" width="4.713439147293939" height="4.713439147293939" fill="#111111" rx="0"></rect>
  <rect x="47.14439147293939" y="9.436878294587878" width="4.713439147293939" height="4.713439147293939" fill="#111111" rx="0"></rect>
  <rect x="51.85783062023333" y="9.436878294587878" width="4.713439147293939" height="4.713439147293939" fill="#111111" rx="0"></rect>
  <rect x="56.57126976752726" y="9.436878294587878" width="4.713439147293939" height="4.713439147293939" fill="#111111" rx="0"></rect>
  <rect x="61.2847089148212" y="9.436878294587878" width="4.713439147293939" height="4.713439147293939" fill="#111111" rx="0"></rect>
  <rect x="75.42502635670303" y="9.436878294587878" width="4.713439147293939" height="4.713439147293939" fill="#111111" rx="0"></rect>
  <rect x="84.85190465129091" y="9.436878294587878" width="4.713439147293939" height="4.713439147293939" fill="#111111" rx="0"></rect>
  <rect x="89.56534379858485" y="9.436878294587878" width="4.713439147293939" height="4.713439147293939" fill="#111111" rx="0"></rect>
  <rect x="94.27878294587879" y="9.436878294587878" width="4.713439147293939" height="4.713439147293939" fill="#111111" rx="0"></rect>
  <rect x="98.99222209317273" y="9.436878294587878" width="4.713439147293939" height="4.713439147293939" fill="#111111" rx="0"></rect>
  <rect x="108.41910038776061" y="9.436878294587878" width="4.713439147293939" height="4.713439147293939" fill="#111111" rx="0"></rect>
  <rect x="113.13253953505453" y="9.436878294587878" width="4.713439147293939" height="4.713439147293939" fill="#111111" rx="0"></rect>
  <rect x="37.71751317835151" y="14.150317441881816" width="4.713439147293939" height="4.713439147293939" fill="#111111" rx="0"></rect>
  <rect x="47.14439147293939" y="14.150317441881816" width="4.713439147293939" height="4.713439147293939" fill="#111111" rx="0"></rect>
  <rect x="51.85783062023333" y="14.150317441881816" width="4.713439147293939" height="4.713439147293939" fill="#111111" rx="0"></rect>
  <rect x="61.2847089148212" y="14.150317441881816" width="4.713439147293939" height="4.713439147293939" fill="#111111" rx="0"></rect>
  <rect x="75.42502635670303" y="14.150317441881816" width="4.713439147293939" height="4.713439147293939" fill="#111111" rx="0"></rect>
  <rect x="80.13846550399697" y="14.150317441881816" width="4.713439147293939" height="4.713439147293939" fill="#111111" rx="0"></rect>
  <rect x="84.85190465129091" y="14.150317441881816" width="4.713439147293939" height="4.713439147293939" fill="#111111" rx="0"></rect>
  <rect x="94.27878294587879" y="14.150317441881816" width="4.713439147293939" height="4.713439147293939" fill="#111111" rx="0"></rect>
  <rect x="98.99222209317273" y="14.150317441881816" width="4.713439147293939" height="4.713439147293939" fill="#111111" rx="0"></rect>
  <rect x="108.41910038776061" y="14.150317441881816" width="4.713439147293939" height="4.713439147293939" fill="#111111" rx="0"></rect>
  <rect x="42.43095232564545" y="18.863756589175757" width="4.713439147293939" height="4.713439147293939" fill="#111111" rx="0"></rect>
  <rect x="51.85783062023333" y="18.863756589175757" width="4.713439147293939" height="4.713439147293939" fill="#111111" rx="0"></rect>
  <rect x="61.2847089148212" y="18.863756589175757" width="4.713439147293939" height="4.713439147293939" fill="#111111" rx="0"></rect>
  <rect x="65.99814806211515" y="18.863756589175757" width="4.713439147293939" height="4.713439147293939" fill="#111111" rx="0"></rect>
  <rect x="84.85190465129091" y="18.863756589175757" width="4.713439147293939" height="4.713439147293939" fill="#111111" rx="0"></rect>
  <rect x="98.99222209317273" y="18.863756589175757" width="4.713439147293939" height="4.713439147293939" fill="#111111" rx="0"></rect>
  <rect x="108.41910038776061" y="18.863756589175757" width="4.713439147293939" height="4.713439147293939" fill="#111111" rx="0"></rect>
  <rect x="113.13253953505453" y="18.863756589175757" width="4.713439147293939" height="4.713439147293939" fill="#111111" rx="0"></rect>
  <rect x="51.85783062023333" y="23.577195736469697" width="4.713439147293939" height="4.713439147293939" fill="#111111" rx="0"></rect>
  <rect x="65.99814806211515" y="23.577195736469697" width="4.713439147293939" height="4.713439147293939" fill="#111111" rx="0"></rect>
  <rect x="75.42502635670303" y="23.577195736469697" width="4.713439147293939" height="4.713439147293939" fill="#111111" rx="0"></rect>
  <rect x="84.85190465129091" y="23.577195736469697" width="4.713439147293939" height="4.713439147293939" fill="#111111" rx="0"></rect>
  <rect x="94.27878294587879" y="23.577195736469697" width="4.713439147293939" height="4.713439147293939" fill="#111111" rx="0"></rect>
  <rect x="103.70566124046667" y="23.577195736469697" width="4.713439147293939" height="4.713439147293939" fill="#111111" rx="0"></rect>
  <rect x="108.41910038776061" y="23.577195736469697" width="4.713439147293939" height="4.713439147293939" fill="#111111" rx="0"></rect>
  <rect x="37.71751317835151" y="28.290634883763634" width="4.713439147293939" height="4.713439147293939" fill="#111111" rx="0"></rect>
  <rect x="47.14439147293939" y="28.290634883763634" width="4.713439147293939" height="4.713439147293939" fill="#111111" rx="0"></rect>
  <rect x="56.57126976752726" y="28.290634883763634" width="4.713439147293939" height="4.713439147293939" fill="#111111" rx="0"></rect>
  <rect x="65.99814806211515" y="28.290634883763634" width="4.713439147293939" height="4.713439147293939" fill="#111111" rx="0"></rect>
  <rect x="75.42502635670303" y="28.290634883763634" width="4.713439147293939" height="4.713439147293939" fill="#111111" rx="0"></rect>
  <rect x="84.85190465129091" y="28.290634883763634" width="4.713439147293939" height="4.713439147293939" fill="#111111" rx="0"></rect>
  <rect x="94.27878294587879" y="28.290634883763634" width="4.713439147293939" height="4.713439147293939" fill="#111111" rx="0"></rect>
  <rect x="103.70566124046667" y="28.290634883763634" width="4.713439147293939" height="4.713439147293939" fill="#111111" rx="0"></rect>
  <rect x="113.13253953505453" y="28.290634883763634" width="4.713439147293939" height="4.713439147293939" fill="#111111" rx="0"></rect>
  <rect x="42.43095232564545" y="33.00407403105757" width="4.713439147293939" height="4.713439147293939" fill="#111111" rx="0"></rect>
  <rect x="47.14439147293939" y="33.00407403105757" width="4.713439147293939" height="4.713439147293939" fill="#111111" rx="0"></rect>
  <rect x="51.85783062023333" y="33.00407403105757" width="4.713439147293939" height="4.713439147293939" fill="#111111" rx="0"></rect>
  <rect x="56.57126976752726" y="33.00407403105757" width="4.713439147293939" height="4.713439147293939" fill="#111111" rx="0"></rect>
  <rect x="65.99814806211515" y="33.00407403105757" width="4.713439147293939" height="4.713439147293939" fill="#111111" rx="0"></rect>
  <rect x="70.71158720940909" y="33.00407403105757" width="4.713439147293939" height="4.713439147293939" fill="#111111" rx="0"></rect>
  <rect x="80.13846550399697" y="33.00407403105757" width="4.713439147293939" height="4.713439147293939" fill="#111111" rx="0"></rect>
  <rect x="84.85190465129091" y="33.00407403105757" width="4.713439147293939" height="4.713439147293939" fill="#111111" rx="0"></rect>
  <rect x="89.56534379858485" y="33.00407403105757" width="4.713439147293939" height="4.713439147293939" fill="#111111" rx="0"></rect>
  <rect x="94.27878294587879" y="33.00407403105757" width="4.713439147293939" height="4.713439147293939" fill="#111111" rx="0"></rect>
  <rect x="103.70566124046667" y="33.00407403105757" width="4.713439147293939" height="4.713439147293939" fill="#111111" rx="0"></rect>
  <rect x="113.13253953505453" y="33.00407403105757" width="4.713439147293939" height="4.713439147293939" fill="#111111" rx="0"></rect>
  <rect x="14.150317441881816" y="37.71751317835151" width="4.713439147293939" height="4.713439147293939" fill="#111111" rx="0"></rect>
  <rect x="18.863756589175757" y="37.71751317835151" width="4.713439147293939" height="4.713439147293939" fill="#111111" rx="0"></rect>
  <rect x="28.290634883763634" y="37.71751317835151" width="4.713439147293939" height="4.713439147293939" fill="#111111" rx="0"></rect>
  <rect x="33.00407403105757" y="37.71751317835151" width="4.713439147293939" height="4.713439147293939" fill="#111111" rx="0"></rect>
  <rect x="51.85783062023333" y="37.71751317835151" width="4.713439147293939" height="4.713439147293939" fill="#111111" rx="0"></rect>
  <rect x="56.57126976752726" y="37.71751317835151" width="4.713439147293939" height="4.713439147293939" fill="#111111" rx="0"></rect>
  <rect x="70.71158720940909" y="37.71751317835151" width="4.713439147293939" height="4.713439147293939" fill="#111111" rx="0"></rect>
  <rect x="75.42502635670303" y="37.71751317835151" width="4.713439147293939" height="4.713439147293939" fill="#111111" rx="0"></rect>
  <rect x="80.13846550399697" y="37.71751317835151" width="4.713439147293939" height="4.713439147293939" fill="#111111" rx="0"></rect>
  <rect x="89.56534379858485" y="37.71751317835151" width="4.713439147293939" height="4.713439147293939" fill="#111111" rx="0"></rect>
  <rect x="94.27878294587879" y="37.71751317835151" width="4.713439147293939" height="4.713439147293939" fill="#111111" rx="0"></rect>
  <rect x="98.99222209317273" y="37.71751317835151" width="4.713439147293939" height="4.713439147293939" fill="#111111" rx="0"></rect>
  <rect x="103.70566124046667" y="37.71751317835151" width="4.713439147293939" height="4.713439147293939" fill="#111111" rx="0"></rect>
  <rect x="113.13253953505453" y="37.71751317835151" width="4.713439147293939" height="4.713439147293939" fill="#111111" rx="0"></rect>
  <rect x="136.69973527152422" y="37.71751317835151" width="4.713439147293939" height="4.713439147293939" fill="#111111" rx="0"></rect>
  <rect x="141.41317441881816" y="37.71751317835151" width="4.713439147293939" height="4.713439147293939" fill="#111111" rx="0"></rect>
  <rect x="0.01" y="42.43095232564545" width="4.713439147293939" height="4.713439147293939" fill="#111111" rx="0"></rect>
  <rect x="42.43095232564545" y="42.43095232564545" width="4.713439147293939" height="4.713439147293939" fill="#111111" rx="0"></rect>
  <rect x="47.14439147293939" y="42.43095232564545" width="4.713439147293939" height="4.713439147293939" fill="#111111" rx="0"></rect>
  <rect x="56.57126976752726" y="42.43095232564545" width="4.713439147293939" height="4.713439147293939" fill="#111111" rx="0"></rect>
  <rect x="61.2847089148212" y="42.43095232564545" width="4.713439147293939" height="4.713439147293939" fill="#111111" rx="0"></rect>
  <rect x="65.99814806211515" y="42.43095232564545" width="4.713439147293939" height="4.713439147293939" fill="#111111" rx="0"></rect>
  <rect x="80.13846550399697" y="42.43095232564545" width="4.713439147293939" height="4.713439147293939" fill="#111111" rx="0"></rect>
  <rect x="84.85190465129091" y="42.43095232564545" width="4.713439147293939" height="4.713439147293939" fill="#111111" rx="0"></rect>
  <rect x="89.56534379858485" y="42.43095232564545" width="4.713439147293939" height="4.713439147293939" fill="#111111" rx="0"></rect>
  <rect x="98.99222209317273" y="42.43095232564545" width="4.713439147293939" height="4.713439147293939" fill="#111111" rx="0"></rect>
  <rect x="117.84597868234847" y="42.43095232564545" width="4.713439147293939" height="4.713439147293939" fill="#111111" rx="0"></rect>
  <rect x="127.27285697693635" y="42.43095232564545" width="4.713439147293939" height="4.713439147293939" fill="#111111" rx="0"></rect>
  <rect x="131.98629612423028" y="42.43095232564545" width="4.713439147293939" height="4.713439147293939" fill="#111111" rx="0"></rect>
  <rect x="136.69973527152422" y="42.43095232564545" width="4.713439147293939" height="4.713439147293939" fill="#111111" rx="0"></rect>
  <rect x="0.01" y="47.14439147293939" width="4.713439147293939" height="4.713439147293939" fill="#111111" rx="0"></rect>
  <rect x="14.150317441881816" y="47.14439147293939" width="4.713439147293939" height="4.713439147293939" fill="#111111" rx="0"></rect>
  <rect x="28.290634883763634" y="47.14439147293939" width="4.713439147293939" height="4.713439147293939" fill="#111111" rx="0"></rect>
  <rect x="37.71751317835151" y="47.14439147293939" width="4.713439147293939" height="4.713439147293939" fill="#111111" rx="0"></rect>
  <rect x="51.85783062023333" y="47.14439147293939" width="4.713439147293939" height="4.713439147293939" fill="#111111" rx="0"></rect>
  <rect x="56.57126976752726" y="47.14439147293939" width="4.713439147293939" height="4.713439147293939" fill="#111111" rx="0"></rect>
  <rect x="65.99814806211515" y="47.14439147293939" width="4.713439147293939" height="4.713439147293939" fill="#111111" rx="0"></rect>
  <rect x="80.13846550399697" y="47.14439147293939" width="4.713439147293939" height="4.713439147293939" fill="#111111" rx="0"></rect>
  <rect x="103.70566124046667" y="47.14439147293939" width="4.713439147293939" height="4.713439147293939" fill="#111111" rx="0"></rect>
  <rect x="113.13253953505453" y="47.14439147293939" width="4.713439147293939" height="4.713439147293939" fill="#111111" rx="0"></rect>
  <rect x="117.84597868234847" y="47.14439147293939" width="4.713439147293939" height="4.713439147293939" fill="#111111" rx="0"></rect>
  <rect x="122.55941782964241" y="47.14439147293939" width="4.713439147293939" height="4.713439147293939" fill="#111111" rx="0"></rect>
  <rect x="127.27285697693635" y="47.14439147293939" width="4.713439147293939" height="4.713439147293939" fill="#111111" rx="0"></rect>
  <rect x="136.69973527152422" y="47.14439147293939" width="4.713439147293939" height="4.713439147293939" fill="#111111" rx="0"></rect>
  <rect x="146.1266135661121" y="47.14439147293939" width="4.713439147293939" height="4.713439147293939" fill="#111111" rx="0"></rect>
  <rect x="150.84005271340604" y="47.14439147293939" width="4.713439147293939" height="4.713439147293939" fill="#111111" rx="0"></rect>
  <rect x="9.436878294587878" y="51.85783062023333" width="4.713439147293939" height="4.713439147293939" fill="#111111" rx="0"></rect>
  <rect x="23.577195736469697" y="51.85783062023333" width="4.713439147293939" height="4.713439147293939" fill="#111111" rx="0"></rect>
  <rect x="42.43095232564545" y="51.85783062023333" width="4.713439147293939" height="4.713439147293939" fill="#111111" rx="0"></rect>
  <rect x="47.14439147293939" y="51.85783062023333" width="4.713439147293939" height="4.713439147293939" fill="#111111" rx="0"></rect>
  <rect x="51.85783062023333" y="51.85783062023333" width="4.713439147293939" height="4.713439147293939" fill="#111111" rx="0"></rect>
  <rect x="65.99814806211515" y="51.85783062023333" width="4.713439147293939" height="4.713439147293939" fill="#111111" rx="0"></rect>
  <rect x="70.71158720940909" y="51.85783062023333" width="4.713439147293939" height="4.713439147293939" fill="#111111" rx="0"></rect>
  <rect x="75.42502635670303" y="51.85783062023333" width="4.713439147293939" height="4.713439147293939" fill="#111111" rx="0"></rect>
  <rect x="80.13846550399697" y="51.85783062023333" width="4.713439147293939" height="4.713439147293939" fill="#111111" rx="0"></rect>
  <rect x="89.56534379858485" y="51.85783062023333" width="4.713439147293939" height="4.713439147293939" fill="#111111" rx="0"></rect>
  <rect x="98.99222209317273" y="51.85783062023333" width="4.713439147293939" height="4.713439147293939" fill="#111111" rx="0"></rect>
  <rect x="103.70566124046667" y="51.85783062023333" width="4.713439147293939" height="4.713439147293939" fill="#111111" rx="0"></rect>
  <rect x="117.84597868234847" y="51.85783062023333" width="4.713439147293939" height="4.713439147293939" fill="#111111" rx="0"></rect>
  <rect x="127.27285697693635" y="51.85783062023333" width="4.713439147293939" height="4.713439147293939" fill="#111111" rx="0"></rect>
  <rect x="131.98629612423028" y="51.85783062023333" width="4.713439147293939" height="4.713439147293939" fill="#111111" rx="0"></rect>
  <rect x="141.41317441881816" y="51.85783062023333" width="4.713439147293939" height="4.713439147293939" fill="#111111" rx="0"></rect>
  <rect x="0.01" y="56.57126976752726" width="4.713439147293939" height="4.713439147293939" fill="#111111" rx="0"></rect>
  <rect x="4.723439147293939" y="56.57126976752726" width="4.713439147293939" height="4.713439147293939" fill="#111111" rx="0"></rect>
  <rect x="23.577195736469697" y="56.57126976752726" width="4.713439147293939" height="4.713439147293939" fill="#111111" rx="0"></rect>
  <rect x="28.290634883763634" y="56.57126976752726" width="4.713439147293939" height="4.713439147293939" fill="#111111" rx="0"></rect>
  <rect x="37.71751317835151" y="56.57126976752726" width="4.713439147293939" height="4.713439147293939" fill="#111111" rx="0"></rect>
  <rect x="47.14439147293939" y="56.57126976752726" width="4.713439147293939" height="4.713439147293939" fill="#111111" rx="0"></rect>
  <rect x="56.57126976752726" y="56.57126976752726" width="4.713439147293939" height="4.713439147293939" fill="#111111" rx="0"></rect>
  <rect x="61.2847089148212" y="56.57126976752726" width="4.713439147293939" height="4.713439147293939" fill="#111111" rx="0"></rect>
  <rect x="75.42502635670303" y="56.57126976752726" width="4.713439147293939" height="4.713439147293939" fill="#111111" rx="0"></rect>
  <rect x="84.85190465129091" y="56.57126976752726" width="4.713439147293939" height="4.713439147293939" fill="#111111" rx="0"></rect>
  <rect x="98.99222209317273" y="56.57126976752726" width="4.713439147293939" height="4.713439147293939" fill="#111111" rx="0"></rect>
  <rect x="113.13253953505453" y="56.57126976752726" width="4.713439147293939" height="4.713439147293939" fill="#111111" rx="0"></rect>
  <rect x="122.55941782964241" y="56.57126976752726" width="4.713439147293939" height="4.713439147293939" fill="#111111" rx="0"></rect>
  <rect x="127.27285697693635" y="56.57126976752726" width="4.713439147293939" height="4.713439147293939" fill="#111111" rx="0"></rect>
  <rect x="131.98629612423028" y="56.57126976752726" width="4.713439147293939" height="4.713439147293939" fill="#111111" rx="0"></rect>
  <rect x="136.69973527152422" y="56.57126976752726" width="4.713439147293939" height="4.713439147293939" fill="#111111" rx="0"></rect>
  <rect x="146.1266135661121" y="56.57126976752726" width="4.713439147293939" height="4.713439147293939" fill="#111111" rx="0"></rect>
  <rect x="4.723439147293939" y="61.2847089148212" width="4.713439147293939" height="4.713439147293939" fill="#111111" rx="0"></rect>
  <rect x="9.436878294587878" y="61.2847089148212" width="4.713439147293939" height="4.713439147293939" fill="#111111" rx="0"></rect>
  <rect x="18.863756589175757" y="61.2847089148212" width="4.713439147293939" height="4.713439147293939" fill="#111111" rx="0"></rect>
  <rect x="23.577195736469697" y="61.2847089148212" width="4.713439147293939" height="4.713439147293939" fill="#111111" rx="0"></rect>
  <rect x="42.43095232564545" y="61.2847089148212" width="4.713439147293939" height="4.713439147293939" fill="#111111" rx="0"></rect>
  <rect x="65.99814806211515" y="61.2847089148212" width="4.713439147293939" height="4.713439147293939" fill="#111111" rx="0"></rect>
  <rect x="70.71158720940909" y="61.2847089148212" width="4.713439147293939" height="4.713439147293939" fill="#111111" rx="0"></rect>
  <rect x="80.13846550399697" y="61.2847089148212" width="4.713439147293939" height="4.713439147293939" fill="#111111" rx="0"></rect>
  <rect x="84.85190465129091" y="61.2847089148212" width="4.713439147293939" height="4.713439147293939" fill="#111111" rx="0"></rect>
  <rect x="89.56534379858485" y="61.2847089148212" width="4.713439147293939" height="4.713439147293939" fill="#111111" rx="0"></rect>
  <rect x="98.99222209317273" y="61.2847089148212" width="4.713439147293939" height="4.713439147293939" fill="#111111" rx="0"></rect>
  <rect x="108.41910038776061" y="61.2847089148212" width="4.713439147293939" height="4.713439147293939" fill="#111111" rx="0"></rect>
  <rect x="127.27285697693635" y="61.2847089148212" width="4.713439147293939" height="4.713439147293939" fill="#111111" rx="0"></rect>
  <rect x="131.98629612423028" y="61.2847089148212" width="4.713439147293939" height="4.713439147293939" fill="#111111" rx="0"></rect>
  <rect x="136.69973527152422" y="61.2847089148212" width="4.713439147293939" height="4.713439147293939" fill="#111111" rx="0"></rect>
  <rect x="146.1266135661121" y="61.2847089148212" width="4.713439147293939" height="4.713439147293939" fill="#111111" rx="0"></rect>
  <rect x="4.723439147293939" y="65.99814806211515" width="4.713439147293939" height="4.713439147293939" fill="#111111" rx="0"></rect>
  <rect x="28.290634883763634" y="65.99814806211515" width="4.713439147293939" height="4.713439147293939" fill="#111111" rx="0"></rect>
  <rect x="42.43095232564545" y="65.99814806211515" width="4.713439147293939" height="4.713439147293939" fill="#111111" rx="0"></rect>
  <rect x="47.14439147293939" y="65.99814806211515" width="4.713439147293939" height="4.713439147293939" fill="#111111" rx="0"></rect>
  <rect x="51.85783062023333" y="65.99814806211515" width="4.713439147293939" height="4.713439147293939" fill="#111111" rx="0"></rect>
  <rect x="56.57126976752726" y="65.99814806211515" width="4.713439147293939" height="4.713439147293939" fill="#111111" rx="0"></rect>
  <rect x="61.2847089148212" y="65.99814806211515" width="4.713439147293939" height="4.713439147293939" fill="#111111" rx="0"></rect>
  <rect x="75.42502635670303" y="65.99814806211515" width="4.713439147293939" height="4.713439147293939" fill="#111111" rx="0"></rect>
  <rect x="80.13846550399697" y="65.99814806211515" width="4.713439147293939" height="4.713439147293939" fill="#111111" rx="0"></rect>
  <rect x="122.55941782964241" y="65.99814806211515" width="4.713439147293939" height="4.713439147293939" fill="#111111" rx="0"></rect>
  <rect x="127.27285697693635" y="65.99814806211515" width="4.713439147293939" height="4.713439147293939" fill="#111111" rx="0"></rect>
  <rect x="0.01" y="70.71158720940909" width="4.713439147293939" height="4.713439147293939" fill="#111111" rx="0"></rect>
  <rect x="4.723439147293939" y="70.71158720940909" width="4.713439147293939" height="4.713439147293939" fill="#111111" rx="0"></rect>
  <rect x="9.436878294587878" y="70.71158720940909" width="4.713439147293939" height="4.713439147293939" fill="#111111" rx="0"></rect>
  <rect x="14.150317441881816" y="70.71158720940909" width="4.713439147293939" height="4.713439147293939" fill="#111111" rx="0"></rect>
  <rect x="37.71751317835151" y="70.71158720940909" width="4.713439147293939" height="4.713439147293939" fill="#111111" rx="0"></rect>
  <rect x="42.43095232564545" y="70.71158720940909" width="4.713439147293939" height="4.713439147293939" fill="#111111" rx="0"></rect>
  <rect x="51.85783062023333" y="70.71158720940909" width="4.713439147293939" height="4.713439147293939" fill="#111111" rx="0"></rect>
  <rect x="75.42502635670303" y="70.71158720940909" width="4.713439147293939" height="4.713439147293939" fill="#111111" rx="0"></rect>
  <rect x="108.41910038776061" y="70.71158720940909" width="4.713439147293939" height="4.713439147293939" fill="#111111" rx="0"></rect>
  <rect x="113.13253953505453" y="70.71158720940909" width="4.713439147293939" height="4.713439147293939" fill="#111111" rx="0"></rect>
  <rect x="117.84597868234847" y="70.71158720940909" width="4.713439147293939" height="4.713439147293939" fill="#111111" rx="0"></rect>
  <rect x="122.55941782964241" y="70.71158720940909" width="4.713439147293939" height="4.713439147293939" fill="#111111" rx="0"></rect>
  <rect x="127.27285697693635" y="70.71158720940909" width="4.713439147293939" height="4.713439147293939" fill="#111111" rx="0"></rect>
  <rect x="136.69973527152422" y="70.71158720940909" width="4.713439147293939" height="4.713439147293939" fill="#111111" rx="0"></rect>
  <rect x="0.01" y="75.42502635670303" width="4.713439147293939" height="4.713439147293939" fill="#111111" rx="0"></rect>
  <rect x="18.863756589175757" y="75.42502635670303" width="4.713439147293939" height="4.713439147293939" fill="#111111" rx="0"></rect>
  <rect x="23.577195736469697" y="75.42502635670303" width="4.713439147293939" height="4.713439147293939" fill="#111111" rx="0"></rect>
  <rect x="28.290634883763634" y="75.42502635670303" width="4.713439147293939" height="4.713439147293939" fill="#111111" rx="0"></rect>
  <rect x="37.71751317835151" y="75.42502635670303" width="4.713439147293939" height="4.713439147293939" fill="#111111" rx="0"></rect>
  <rect x="47.14439147293939" y="75.42502635670303" width="4.713439147293939" height="4.713439147293939" fill="#111111" rx="0"></rect>
  <rect x="51.85783062023333" y="75.42502635670303" width="4.713439147293939" height="4.713439147293939" fill="#111111" rx="0"></rect>
  <rect x="56.57126976752726" y="75.42502635670303" width="4.713439147293939" height="4.713439147293939" fill="#111111" rx="0"></rect>
  <rect x="61.2847089148212" y="75.42502635670303" width="4.713439147293939" height="4.713439147293939" fill="#111111" rx="0"></rect>
  <rect x="75.42502635670303" y="75.42502635670303" width="4.713439147293939" height="4.713439147293939" fill="#111111" rx="0"></rect>
  <rect x="108.41910038776061" y="75.42502635670303" width="4.713439147293939" height="4.713439147293939" fill="#111111" rx="0"></rect>
  <rect x="122.55941782964241" y="75.42502635670303" width="4.713439147293939" height="4.713439147293939" fill="#111111" rx="0"></rect>
  <rect x="127.27285697693635" y="75.42502635670303" width="4.713439147293939" height="4.713439147293939" fill="#111111" rx="0"></rect>
  <rect x="131.98629612423028" y="75.42502635670303" width="4.713439147293939" height="4.713439147293939" fill="#111111" rx="0"></rect>
  <rect x="136.69973527152422" y="75.42502635670303" width="4.713439147293939" height="4.713439147293939" fill="#111111" rx="0"></rect>
  <rect x="141.41317441881816" y="75.42502635670303" width="4.713439147293939" height="4.713439147293939" fill="#111111" rx="0"></rect>
  <rect x="146.1266135661121" y="75.42502635670303" width="4.713439147293939" height="4.713439147293939" fill="#111111" rx="0"></rect>
  <rect x="150.84005271340604" y="75.42502635670303" width="4.713439147293939" height="4.713439147293939" fill="#111111" rx="0"></rect>
  <rect x="4.723439147293939" y="80.13846550399697" width="4.713439147293939" height="4.713439147293939" fill="#111111" rx="0"></rect>
  <rect x="14.150317441881816" y="80.13846550399697" width="4.713439147293939" height="4.713439147293939" fill="#111111" rx="0"></rect>
  <rect x="23.577195736469697" y="80.13846550399697" width="4.713439147293939" height="4.713439147293939" fill="#111111" rx="0"></rect>
  <rect x="42.43095232564545" y="80.13846550399697" width="4.713439147293939" height="4.713439147293939" fill="#111111" rx="0"></rect>
  <rect x="47.14439147293939" y="80.13846550399697" width="4.713439147293939" height="4.713439147293939" fill="#111111" rx="0"></rect>
  <rect x="65.99814806211515" y="80.13846550399697" width="4.713439147293939" height="4.713439147293939" fill="#111111" rx="0"></rect>
  <rect x="84.85190465129091" y="80.13846550399697" width="4.713439147293939" height="4.713439147293939" fill="#111111" rx="0"></rect>
  <rect x="89.56534379858485" y="80.13846550399697" width="4.713439147293939" height="4.713439147293939" fill="#111111" rx="0"></rect>
  <rect x="103.70566124046667" y="80.13846550399697" width="4.713439147293939" height="4.713439147293939" fill="#111111" rx="0"></rect>
  <rect x="113.13253953505453" y="80.13846550399697" width="4.713439147293939" height="4.713439147293939" fill="#111111" rx="0"></rect>
  <rect x="122.55941782964241" y="80.13846550399697" width="4.713439147293939" height="4.713439147293939" fill="#111111" rx="0"></rect>
  <rect x="127.27285697693635" y="80.13846550399697" width="4.713439147293939" height="4.713439147293939" fill="#111111" rx="0"></rect>
  <rect x="131.98629612423028" y="80.13846550399697" width="4.713439147293939" height="4.713439147293939" fill="#111111" rx="0"></rect>
  <rect x="136.69973527152422" y="80.13846550399697" width="4.713439147293939" height="4.713439147293939" fill="#111111" rx="0"></rect>
  <rect x="146.1266135661121" y="80.13846550399697" width="4.713439147293939" height="4.713439147293939" fill="#111111" rx="0"></rect>
  <rect x="9.436878294587878" y="84.85190465129091" width="4.713439147293939" height="4.713439147293939" fill="#111111" rx="0"></rect>
  <rect x="23.577195736469697" y="84.85190465129091" width="4.713439147293939" height="4.713439147293939" fill="#111111" rx="0"></rect>
  <rect x="28.290634883763634" y="84.85190465129091" width="4.713439147293939" height="4.713439147293939" fill="#111111" rx="0"></rect>
  <rect x="37.71751317835151" y="84.85190465129091" width="4.713439147293939" height="4.713439147293939" fill="#111111" rx="0"></rect>
  <rect x="47.14439147293939" y="84.85190465129091" width="4.713439147293939" height="4.713439147293939" fill="#111111" rx="0"></rect>
  <rect x="56.57126976752726" y="84.85190465129091" width="4.713439147293939" height="4.713439147293939" fill="#111111" rx="0"></rect>
  <rect x="61.2847089148212" y="84.85190465129091" width="4.713439147293939" height="4.713439147293939" fill="#111111" rx="0"></rect>
  <rect x="70.71158720940909" y="84.85190465129091" width="4.713439147293939" height="4.713439147293939" fill="#111111" rx="0"></rect>
  <rect x="75.42502635670303" y="84.85190465129091" width="4.713439147293939" height="4.713439147293939" fill="#111111" rx="0"></rect>
  <rect x="84.85190465129091" y="84.85190465129091" width="4.713439147293939" height="4.713439147293939" fill="#111111" rx="0"></rect>
  <rect x="89.56534379858485" y="84.85190465129091" width="4.713439147293939" height="4.713439147293939" fill="#111111" rx="0"></rect>
  <rect x="98.99222209317273" y="84.85190465129091" width="4.713439147293939" height="4.713439147293939" fill="#111111" rx="0"></rect>
  <rect x="108.41910038776061" y="84.85190465129091" width="4.713439147293939" height="4.713439147293939" fill="#111111" rx="0"></rect>
  <rect x="117.84597868234847" y="84.85190465129091" width="4.713439147293939" height="4.713439147293939" fill="#111111" rx="0"></rect>
  <rect x="122.55941782964241" y="84.85190465129091" width="4.713439147293939" height="4.713439147293939" fill="#111111" rx="0"></rect>
  <rect x="136.69973527152422" y="84.85190465129091" width="4.713439147293939" height="4.713439147293939" fill="#111111" rx="0"></rect>
  <rect x="141.41317441881816" y="84.85190465129091" width="4.713439147293939" height="4.713439147293939" fill="#111111" rx="0"></rect>
  <rect x="146.1266135661121" y="84.85190465129091" width="4.713439147293939" height="4.713439147293939" fill="#111111" rx="0"></rect>
  <rect x="150.84005271340604" y="84.85190465129091" width="4.713439147293939" height="4.713439147293939" fill="#111111" rx="0"></rect>
  <rect x="0.01" y="89.56534379858485" width="4.713439147293939" height="4.713439147293939" fill="#111111" rx="0"></rect>
  <rect x="4.723439147293939" y="89.56534379858485" width="4.713439147293939" height="4.713439147293939" fill="#111111" rx="0"></rect>
  <rect x="9.436878294587878" y="89.56534379858485" width="4.713439147293939" height="4.713439147293939" fill="#111111" rx="0"></rect>
  <rect x="18.863756589175757" y="89.56534379858485" width="4.713439147293939" height="4.713439147293939" fill="#111111" rx="0"></rect>
  <rect x="33.00407403105757" y="89.56534379858485" width="4.713439147293939" height="4.713439147293939" fill="#111111" rx="0"></rect>
  <rect x="65.99814806211515" y="89.56534379858485" width="4.713439147293939" height="4.713439147293939" fill="#111111" rx="0"></rect>
  <rect x="80.13846550399697" y="89.56534379858485" width="4.713439147293939" height="4.713439147293939" fill="#111111" rx="0"></rect>
  <rect x="84.85190465129091" y="89.56534379858485" width="4.713439147293939" height="4.713439147293939" fill="#111111" rx="0"></rect>
  <rect x="108.41910038776061" y="89.56534379858485" width="4.713439147293939" height="4.713439147293939" fill="#111111" rx="0"></rect>
  <rect x="113.13253953505453" y="89.56534379858485" width="4.713439147293939" height="4.713439147293939" fill="#111111" rx="0"></rect>
  <rect x="122.55941782964241" y="89.56534379858485" width="4.713439147293939" height="4.713439147293939" fill="#111111" rx="0"></rect>
  <rect x="127.27285697693635" y="89.56534379858485" width="4.713439147293939" height="4.713439147293939" fill="#111111" rx="0"></rect>
  <rect x="131.98629612423028" y="89.56534379858485" width="4.713439147293939" height="4.713439147293939" fill="#111111" rx="0"></rect>
  <rect x="136.69973527152422" y="89.56534379858485" width="4.713439147293939" height="4.713439147293939" fill="#111111" rx="0"></rect>
  <rect x="141.41317441881816" y="89.56534379858485" width="4.713439147293939" height="4.713439147293939" fill="#111111" rx="0"></rect>
  <rect x="150.84005271340604" y="89.56534379858485" width="4.713439147293939" height="4.713439147293939" fill="#111111" rx="0"></rect>
  <rect x="0.01" y="94.27878294587879" width="4.713439147293939" height="4.713439147293939" fill="#111111" rx="0"></rect>
  <rect x="14.150317441881816" y="94.27878294587879" width="4.713439147293939" height="4.713439147293939" fill="#111111" rx="0"></rect>
  <rect x="23.577195736469697" y="94.27878294587879" width="4.713439147293939" height="4.713439147293939" fill="#111111" rx="0"></rect>
  <rect x="28.290634883763634" y="94.27878294587879" width="4.713439147293939" height="4.713439147293939" fill="#111111" rx="0"></rect>
  <rect x="37.71751317835151" y="94.27878294587879" width="4.713439147293939" height="4.713439147293939" fill="#111111" rx="0"></rect>
  <rect x="51.85783062023333" y="94.27878294587879" width="4.713439147293939" height="4.713439147293939" fill="#111111" rx="0"></rect>
  <rect x="56.57126976752726" y="94.27878294587879" width="4.713439147293939" height="4.713439147293939" fill="#111111" rx="0"></rect>
  <rect x="70.71158720940909" y="94.27878294587879" width="4.713439147293939" height="4.713439147293939" fill="#111111" rx="0"></rect>
  <rect x="75.42502635670303" y="94.27878294587879" width="4.713439147293939" height="4.713439147293939" fill="#111111" rx="0"></rect>
  <rect x="113.13253953505453" y="94.27878294587879" width="4.713439147293939" height="4.713439147293939" fill="#111111" rx="0"></rect>
  <rect x="117.84597868234847" y="94.27878294587879" width="4.713439147293939" height="4.713439147293939" fill="#111111" rx="0"></rect>
  <rect x="127.27285697693635" y="94.27878294587879" width="4.713439147293939" height="4.713439147293939" fill="#111111" rx="0"></rect>
  <rect x="136.69973527152422" y="94.27878294587879" width="4.713439147293939" height="4.713439147293939" fill="#111111" rx="0"></rect>
  <rect x="146.1266135661121" y="94.27878294587879" width="4.713439147293939" height="4.713439147293939" fill="#111111" rx="0"></rect>
  <rect x="0.01" y="98.99222209317273" width="4.713439147293939" height="4.713439147293939" fill="#111111" rx="0"></rect>
  <rect x="4.723439147293939" y="98.99222209317273" width="4.713439147293939" height="4.713439147293939" fill="#111111" rx="0"></rect>
  <rect x="18.863756589175757" y="98.99222209317273" width="4.713439147293939" height="4.713439147293939" fill="#111111" rx="0"></rect>
  <rect x="33.00407403105757" y="98.99222209317273" width="4.713439147293939" height="4.713439147293939" fill="#111111" rx="0"></rect>
  <rect x="42.43095232564545" y="98.99222209317273" width="4.713439147293939" height="4.713439147293939" fill="#111111" rx="0"></rect>
  <rect x="47.14439147293939" y="98.99222209317273" width="4.713439147293939" height="4.713439147293939" fill="#111111" rx="0"></rect>
  <rect x="51.85783062023333" y="98.99222209317273" width="4.713439147293939" height="4.713439147293939" fill="#111111" rx="0"></rect>
  <rect x="56.57126976752726" y="98.99222209317273" width="4.713439147293939" height="4.713439147293939" fill="#111111" rx="0"></rect>
  <rect x="61.2847089148212" y="98.99222209317273" width="4.713439147293939" height="4.713439147293939" fill="#111111" rx="0"></rect>
  <rect x="70.71158720940909" y="98.99222209317273" width="4.713439147293939" height="4.713439147293939" fill="#111111" rx="0"></rect>
  <rect x="75.42502635670303" y="98.99222209317273" width="4.713439147293939" height="4.713439147293939" fill="#111111" rx="0"></rect>
  <rect x="84.85190465129091" y="98.99222209317273" width="4.713439147293939" height="4.713439147293939" fill="#111111" rx="0"></rect>
  <rect x="89.56534379858485" y="98.99222209317273" width="4.713439147293939" height="4.713439147293939" fill="#111111" rx="0"></rect>
  <rect x="98.99222209317273" y="98.99222209317273" width="4.713439147293939" height="4.713439147293939" fill="#111111" rx="0"></rect>
  <rect x="103.70566124046667" y="98.99222209317273" width="4.713439147293939" height="4.713439147293939" fill="#111111" rx="0"></rect>
  <rect x="117.84597868234847" y="98.99222209317273" width="4.713439147293939" height="4.713439147293939" fill="#111111" rx="0"></rect>
  <rect x="122.55941782964241" y="98.99222209317273" width="4.713439147293939" height="4.713439147293939" fill="#111111" rx="0"></rect>
  <rect x="127.27285697693635" y="98.99222209317273" width="4.713439147293939" height="4.713439147293939" fill="#111111" rx="0"></rect>
  <rect x="131.98629612423028" y="98.99222209317273" width="4.713439147293939" height="4.713439147293939" fill="#111111" rx="0"></rect>
  <rect x="136.69973527152422" y="98.99222209317273" width="4.713439147293939" height="4.713439147293939" fill="#111111" rx="0"></rect>
  <rect x="0.01" y="103.70566124046667" width="4.713439147293939" height="4.713439147293939" fill="#111111" rx="0"></rect>
  <rect x="9.436878294587878" y="103.70566124046667" width="4.713439147293939" height="4.713439147293939" fill="#111111" rx="0"></rect>
  <rect x="14.150317441881816" y="103.70566124046667" width="4.713439147293939" height="4.713439147293939" fill="#111111" rx="0"></rect>
  <rect x="18.863756589175757" y="103.70566124046667" width="4.713439147293939" height="4.713439147293939" fill="#111111" rx="0"></rect>
  <rect x="28.290634883763634" y="103.70566124046667" width="4.713439147293939" height="4.713439147293939" fill="#111111" rx="0"></rect>
  <rect x="33.00407403105757" y="103.70566124046667" width="4.713439147293939" height="4.713439147293939" fill="#111111" rx="0"></rect>
  <rect x="42.43095232564545" y="103.70566124046667" width="4.713439147293939" height="4.713439147293939" fill="#111111" rx="0"></rect>
  <rect x="75.42502635670303" y="103.70566124046667" width="4.713439147293939" height="4.713439147293939" fill="#111111" rx="0"></rect>
  <rect x="84.85190465129091" y="103.70566124046667" width="4.713439147293939" height="4.713439147293939" fill="#111111" rx="0"></rect>
  <rect x="94.27878294587879" y="103.70566124046667" width="4.713439147293939" height="4.713439147293939" fill="#111111" rx="0"></rect>
  <rect x="103.70566124046667" y="103.70566124046667" width="4.713439147293939" height="4.713439147293939" fill="#111111" rx="0"></rect>
  <rect x="113.13253953505453" y="103.70566124046667" width="4.713439147293939" height="4.713439147293939" fill="#111111" rx="0"></rect>
  <rect x="122.55941782964241" y="103.70566124046667" width="4.713439147293939" height="4.713439147293939" fill="#111111" rx="0"></rect>
  <rect x="127.27285697693635" y="103.70566124046667" width="4.713439147293939" height="4.713439147293939" fill="#111111" rx="0"></rect>
  <rect x="131.98629612423028" y="103.70566124046667" width="4.713439147293939" height="4.713439147293939" fill="#111111" rx="0"></rect>
  <rect x="150.84005271340604" y="103.70566124046667" width="4.713439147293939" height="4.713439147293939" fill="#111111" rx="0"></rect>
  <rect x="0.01" y="108.41910038776061" width="4.713439147293939" height="4.713439147293939" fill="#111111" rx="0"></rect>
  <rect x="9.436878294587878" y="108.41910038776061" width="4.713439147293939" height="4.713439147293939" fill="#111111" rx="0"></rect>
  <rect x="14.150317441881816" y="108.41910038776061" width="4.713439147293939" height="4.713439147293939" fill="#111111" rx="0"></rect>
  <rect x="23.577195736469697" y="108.41910038776061" width="4.713439147293939" height="4.713439147293939" fill="#111111" rx="0"></rect>
  <rect x="33.00407403105757" y="108.41910038776061" width="4.713439147293939" height="4.713439147293939" fill="#111111" rx="0"></rect>
  <rect x="37.71751317835151" y="108.41910038776061" width="4.713439147293939" height="4.713439147293939" fill="#111111" rx="0"></rect>
  <rect x="47.14439147293939" y="108.41910038776061" width="4.713439147293939" height="4.713439147293939" fill="#111111" rx="0"></rect>
  <rect x="51.85783062023333" y="108.41910038776061" width="4.713439147293939" height="4.713439147293939" fill="#111111" rx="0"></rect>
  <rect x="61.2847089148212" y="108.41910038776061" width="4.713439147293939" height="4.713439147293939" fill="#111111" rx="0"></rect>
  <rect x="65.99814806211515" y="108.41910038776061" width="4.713439147293939" height="4.713439147293939" fill="#111111" rx="0"></rect>
  <rect x="75.42502635670303" y="108.41910038776061" width="4.713439147293939" height="4.713439147293939" fill="#111111" rx="0"></rect>
  <rect x="80.13846550399697" y="108.41910038776061" width="4.713439147293939" height="4.713439147293939" fill="#111111" rx="0"></rect>
  <rect x="94.27878294587879" y="108.41910038776061" width="4.713439147293939" height="4.713439147293939" fill="#111111" rx="0"></rect>
  <rect x="98.99222209317273" y="108.41910038776061" width="4.713439147293939" height="4.713439147293939" fill="#111111" rx="0"></rect>
  <rect x="103.70566124046667" y="108.41910038776061" width="4.713439147293939" height="4.713439147293939" fill="#111111" rx="0"></rect>
  <rect x="127.27285697693635" y="108.41910038776061" width="4.713439147293939" height="4.713439147293939" fill="#111111" rx="0"></rect>
  <rect x="131.98629612423028" y="108.41910038776061" width="4.713439147293939" height="4.713439147293939" fill="#111111" rx="0"></rect>
  <rect x="141.41317441881816" y="108.41910038776061" width="4.713439147293939" height="4.713439147293939" fill="#111111" rx="0"></rect>
  <rect x="146.1266135661121" y="108.41910038776061" width="4.713439147293939" height="4.713439147293939" fill="#111111" rx="0"></rect>
  <rect x="0.01" y="113.13253953505453" width="4.713439147293939" height="4.713439147293939" fill="#111111" rx="0"></rect>
  <rect x="4.723439147293939" y="113.13253953505453" width="4.713439147293939" height="4.713439147293939" fill="#111111" rx="0"></rect>
  <rect x="9.436878294587878" y="113.13253953505453" width="4.713439147293939" height="4.713439147293939" fill="#111111" rx="0"></rect>
  <rect x="14.150317441881816" y="113.13253953505453" width="4.713439147293939" height="4.713439147293939" fill="#111111" rx="0"></rect>
  <rect x="18.863756589175757" y="113.13253953505453" width="4.713439147293939" height="4.713439147293939" fill="#111111" rx="0"></rect>
  <rect x="28.290634883763634" y="113.13253953505453" width="4.713439147293939" height="4.713439147293939" fill="#111111" rx="0"></rect>
  <rect x="42.43095232564545" y="113.13253953505453" width="4.713439147293939" height="4.713439147293939" fill="#111111" rx="0"></rect>
  <rect x="47.14439147293939" y="113.13253953505453" width="4.713439147293939" height="4.713439147293939" fill="#111111" rx="0"></rect>
  <rect x="56.57126976752726" y="113.13253953505453" width="4.713439147293939" height="4.713439147293939" fill="#111111" rx="0"></rect>
  <rect x="61.2847089148212" y="113.13253953505453" width="4.713439147293939" height="4.713439147293939" fill="#111111" rx="0"></rect>
  <rect x="75.42502635670303" y="113.13253953505453" width="4.713439147293939" height="4.713439147293939" fill="#111111" rx="0"></rect>
  <rect x="80.13846550399697" y="113.13253953505453" width="4.713439147293939" height="4.713439147293939" fill="#111111" rx="0"></rect>
  <rect x="98.99222209317273" y="113.13253953505453" width="4.713439147293939" height="4.713439147293939" fill="#111111" rx="0"></rect>
  <rect x="113.13253953505453" y="113.13253953505453" width="4.713439147293939" height="4.713439147293939" fill="#111111" rx="0"></rect>
  <rect x="117.84597868234847" y="113.13253953505453" width="4.713439147293939" height="4.713439147293939" fill="#111111" rx="0"></rect>
  <rect x="122.55941782964241" y="113.13253953505453" width="4.713439147293939" height="4.713439147293939" fill="#111111" rx="0"></rect>
  <rect x="127.27285697693635" y="113.13253953505453" width="4.713439147293939" height="4.713439147293939" fill="#111111" rx="0"></rect>
  <rect x="131.98629612423028" y="113.13253953505453" width="4.713439147293939" height="4.713439147293939" fill="#111111" rx="0"></rect>
  <rect x="150.84005271340604" y="113.13253953505453" width="4.713439147293939" height="4.713439147293939" fill="#111111" rx="0"></rect>
  <rect x="37.71751317835151" y="117.84597868234847" width="4.713439147293939" height="4.713439147293939" fill="#111111" rx="0"></rect>
  <rect x="51.85783062023333" y="117.84597868234847" width="4.713439147293939" height="4.713439147293939" fill="#111111" rx="0"></rect>
  <rect x="56.57126976752726" y="117.84597868234847" width="4.713439147293939" height="4.713439147293939" fill="#111111" rx="0"></rect>
  <rect x="70.71158720940909" y="117.84597868234847" width="4.713439147293939" height="4.713439147293939" fill="#111111" rx="0"></rect>
  <rect x="80.13846550399697" y="117.84597868234847" width="4.713439147293939" height="4.713439147293939" fill="#111111" rx="0"></rect>
  <rect x="84.85190465129091" y="117.84597868234847" width="4.713439147293939" height="4.713439147293939" fill="#111111" rx="0"></rect>
  <rect x="89.56534379858485" y="117.84597868234847" width="4.713439147293939" height="4.713439147293939" fill="#111111" rx="0"></rect>
  <rect x="94.27878294587879" y="117.84597868234847" width="4.713439147293939" height="4.713439147293939" fill="#111111" rx="0"></rect>
  <rect x="113.13253953505453" y="117.84597868234847" width="4.713439147293939" height="4.713439147293939" fill="#111111" rx="0"></rect>
  <rect x="131.98629612423028" y="117.84597868234847" width="4.713439147293939" height="4.713439147293939" fill="#111111" rx="0"></rect>
  <rect x="141.41317441881816" y="117.84597868234847" width="4.713439147293939" height="4.713439147293939" fill="#111111" rx="0"></rect>
  <rect x="146.1266135661121" y="117.84597868234847" width="4.713439147293939" height="4.713439147293939" fill="#111111" rx="0"></rect>
  <rect x="37.71751317835151" y="122.55941782964241" width="4.713439147293939" height="4.713439147293939" fill="#111111" rx="0"></rect>
  <rect x="42.43095232564545" y="122.55941782964241" width="4.713439147293939" height="4.713439147293939" fill="#111111" rx="0"></rect>
  <rect x="51.85783062023333" y="122.55941782964241" width="4.713439147293939" height="4.713439147293939" fill="#111111" rx="0"></rect>
  <rect x="56.57126976752726" y="122.55941782964241" width="4.713439147293939" height="4.713439147293939" fill="#111111" rx="0"></rect>
  <rect x="61.2847089148212" y="122.55941782964241" width="4.713439147293939" height="4.713439147293939" fill="#111111" rx="0"></rect>
  <rect x="70.71158720940909" y="122.55941782964241" width="4.713439147293939" height="4.713439147293939" fill="#111111" rx="0"></rect>
  <rect x="80.13846550399697" y="122.55941782964241" width="4.713439147293939" height="4.713439147293939" fill="#111111" rx="0"></rect>
  <rect x="84.85190465129091" y="122.55941782964241" width="4.713439147293939" height="4.713439147293939" fill="#111111" rx="0"></rect>
  <rect x="89.56534379858485" y="122.55941782964241" width="4.713439147293939" height="4.713439147293939" fill="#111111" rx="0"></rect>
  <rect x="94.27878294587879" y="122.55941782964241" width="4.713439147293939" height="4.713439147293939" fill="#111111" rx="0"></rect>
  <rect x="98.99222209317273" y="122.55941782964241" width="4.713439147293939" height="4.713439147293939" fill="#111111" rx="0"></rect>
  <rect x="103.70566124046667" y="122.55941782964241" width="4.713439147293939" height="4.713439147293939" fill="#111111" rx="0"></rect>
  <rect x="113.13253953505453" y="122.55941782964241" width="4.713439147293939" height="4.713439147293939" fill="#111111" rx="0"></rect>
  <rect x="122.55941782964241" y="122.55941782964241" width="4.713439147293939" height="4.713439147293939" fill="#111111" rx="0"></rect>
  <rect x="131.98629612423028" y="122.55941782964241" width="4.713439147293939" height="4.713439147293939" fill="#111111" rx="0"></rect>
  <rect x="136.69973527152422" y="122.55941782964241" width="4.713439147293939" height="4.713439147293939" fill="#111111" rx="0"></rect>
  <rect x="51.85783062023333" y="127.27285697693635" width="4.713439147293939" height="4.713439147293939" fill="#111111" rx="0"></rect>
  <rect x="56.57126976752726" y="127.27285697693635" width="4.713439147293939" height="4.713439147293939" fill="#111111" rx="0"></rect>
  <rect x="65.99814806211515" y="127.27285697693635" width="4.713439147293939" height="4.713439147293939" fill="#111111" rx="0"></rect>
  <rect x="70.71158720940909" y="127.27285697693635" width="4.713439147293939" height="4.713439147293939" fill="#111111" rx="0"></rect>
  <rect x="80.13846550399697" y="127.27285697693635" width="4.713439147293939" height="4.713439147293939" fill="#111111" rx="0"></rect>
  <rect x="113.13253953505453" y="127.27285697693635" width="4.713439147293939" height="4.713439147293939" fill="#111111" rx="0"></rect>
  <rect x="131.98629612423028" y="127.27285697693635" width="4.713439147293939" height="4.713439147293939" fill="#111111" rx="0"></rect>
  <rect x="136.69973527152422" y="127.27285697693635" width="4.713439147293939" height="4.713439147293939" fill="#111111" rx="0"></rect>
  <rect x="141.41317441881816" y="127.27285697693635" width="4.713439147293939" height="4.713439147293939" fill="#111111" rx="0"></rect>
  <rect x="146.1266135661121" y="127.27285697693635" width="4.713439147293939" height="4.713439147293939" fill="#111111" rx="0"></rect>
  <rect x="37.71751317835151" y="131.98629612423028" width="4.713439147293939" height="4.713439147293939" fill="#111111" rx="0"></rect>
  <rect x="51.85783062023333" y="131.98629612423028" width="4.713439147293939" height="4.713439147293939" fill="#111111" rx="0"></rect>
  <rect x="61.2847089148212" y="131.98629612423028" width="4.713439147293939" height="4.713439147293939" fill="#111111" rx="0"></rect>
  <rect x="70.71158720940909" y="131.98629612423028" width="4.713439147293939" height="4.713439147293939" fill="#111111" rx="0"></rect>
  <rect x="75.42502635670303" y="131.98629612423028" width="4.713439147293939" height="4.713439147293939" fill="#111111" rx="0"></rect>
  <rect x="80.13846550399697" y="131.98629612423028" width="4.713439147293939" height="4.713439147293939" fill="#111111" rx="0"></rect>
  <rect x="84.85190465129091" y="131.98629612423028" width="4.713439147293939" height="4.713439147293939" fill="#111111" rx="0"></rect>
  <rect x="94.27878294587879" y="131.98629612423028" width="4.713439147293939" height="4.713439147293939" fill="#111111" rx="0"></rect>
  <rect x="98.99222209317273" y="131.98629612423028" width="4.713439147293939" height="4.713439147293939" fill="#111111" rx="0"></rect>
  <rect x="108.41910038776061" y="131.98629612423028" width="4.713439147293939" height="4.713439147293939" fill="#111111" rx="0"></rect>
  <rect x="113.13253953505453" y="131.98629612423028" width="4.713439147293939" height="4.713439147293939" fill="#111111" rx="0"></rect>
  <rect x="117.84597868234847" y="131.98629612423028" width="4.713439147293939" height="4.713439147293939" fill="#111111" rx="0"></rect>
  <rect x="122.55941782964241" y="131.98629612423028" width="4.713439147293939" height="4.713439147293939" fill="#111111" rx="0"></rect>
  <rect x="127.27285697693635" y="131.98629612423028" width="4.713439147293939" height="4.713439147293939" fill="#111111" rx="0"></rect>
  <rect x="131.98629612423028" y="131.98629612423028" width="4.713439147293939" height="4.713439147293939" fill="#111111" rx="0"></rect>
  <rect x="136.69973527152422" y="131.98629612423028" width="4.713439147293939" height="4.713439147293939" fill="#111111" rx="0"></rect>
  <rect x="146.1266135661121" y="131.98629612423028" width="4.713439147293939" height="4.713439147293939" fill="#111111" rx="0"></rect>
  <rect x="37.71751317835151" y="136.69973527152422" width="4.713439147293939" height="4.713439147293939" fill="#111111" rx="0"></rect>
  <rect x="42.43095232564545" y="136.69973527152422" width="4.713439147293939" height="4.713439147293939" fill="#111111" rx="0"></rect>
  <rect x="47.14439147293939" y="136.69973527152422" width="4.713439147293939" height="4.713439147293939" fill="#111111" rx="0"></rect>
  <rect x="56.57126976752726" y="136.69973527152422" width="4.713439147293939" height="4.713439147293939" fill="#111111" rx="0"></rect>
  <rect x="65.99814806211515" y="136.69973527152422" width="4.713439147293939" height="4.713439147293939" fill="#111111" rx="0"></rect>
  <rect x="80.13846550399697" y="136.69973527152422" width="4.713439147293939" height="4.713439147293939" fill="#111111" rx="0"></rect>
  <rect x="117.84597868234847" y="136.69973527152422" width="4.713439147293939" height="4.713439147293939" fill="#111111" rx="0"></rect>
  <rect x="127.27285697693635" y="136.69973527152422" width="4.713439147293939" height="4.713439147293939" fill="#111111" rx="0"></rect>
  <rect x="136.69973527152422" y="136.69973527152422" width="4.713439147293939" height="4.713439147293939" fill="#111111" rx="0"></rect>
  <rect x="141.41317441881816" y="136.69973527152422" width="4.713439147293939" height="4.713439147293939" fill="#111111" rx="0"></rect>
  <rect x="146.1266135661121" y="136.69973527152422" width="4.713439147293939" height="4.713439147293939" fill="#111111" rx="0"></rect>
  <rect x="56.57126976752726" y="141.41317441881816" width="4.713439147293939" height="4.713439147293939" fill="#111111" rx="0"></rect>
  <rect x="61.2847089148212" y="141.41317441881816" width="4.713439147293939" height="4.713439147293939" fill="#111111" rx="0"></rect>
  <rect x="65.99814806211515" y="141.41317441881816" width="4.713439147293939" height="4.713439147293939" fill="#111111" rx="0"></rect>
  <rect x="75.42502635670303" y="141.41317441881816" width="4.713439147293939" height="4.713439147293939" fill="#111111" rx="0"></rect>
  <rect x="84.85190465129091" y="141.41317441881816" width="4.713439147293939" height="4.713439147293939" fill="#111111" rx="0"></rect>
  <rect x="89.56534379858485" y="141.41317441881816" width="4.713439147293939" height="4.713439147293939" fill="#111111" rx="0"></rect>
  <rect x="94.27878294587879" y="141.41317441881816" width="4.713439147293939" height="4.713439147293939" fill="#111111" rx="0"></rect>
  <rect x="98.99222209317273" y="141.41317441881816" width="4.713439147293939" height="4.713439147293939" fill="#111111" rx="0"></rect>
  <rect x="131.98629612423028" y="141.41317441881816" width="4.713439147293939" height="4.713439147293939" fill="#111111" rx="0"></rect>
  <rect x="141.41317441881816" y="141.41317441881816" width="4.713439147293939" height="4.713439147293939" fill="#111111" rx="0"></rect>
  <rect x="146.1266135661121" y="141.41317441881816" width="4.713439147293939" height="4.713439147293939" fill="#111111" rx="0"></rect>
  <rect x="150.84005271340604" y="141.41317441881816" width="4.713439147293939" height="4.713439147293939" fill="#111111" rx="0"></rect>
  <rect x="56.57126976752726" y="146.1266135661121" width="4.713439147293939" height="4.713439147293939" fill="#111111" rx="0"></rect>
  <rect x="65.99814806211515" y="146.1266135661121" width="4.713439147293939" height="4.713439147293939" fill="#111111" rx="0"></rect>
  <rect x="70.71158720940909" y="146.1266135661121" width="4.713439147293939" height="4.713439147293939" fill="#111111" rx="0"></rect>
  <rect x="75.42502635670303" y="146.1266135661121" width="4.713439147293939" height="4.713439147293939" fill="#111111" rx="0"></rect>
  <rect x="80.13846550399697" y="146.1266135661121" width="4.713439147293939" height="4.713439147293939" fill="#111111" rx="0"></rect>
  <rect x="89.56534379858485" y="146.1266135661121" width="4.713439147293939" height="4.713439147293939" fill="#111111" rx="0"></rect>
  <rect x="98.99222209317273" y="146.1266135661121" width="4.713439147293939" height="4.713439147293939" fill="#111111" rx="0"></rect>
  <rect x="103.70566124046667" y="146.1266135661121" width="4.713439147293939" height="4.713439147293939" fill="#111111" rx="0"></rect>
  <rect x="117.84597868234847" y="146.1266135661121" width="4.713439147293939" height="4.713439147293939" fill="#111111" rx="0"></rect>
  <rect x="122.55941782964241" y="146.1266135661121" width="4.713439147293939" height="4.713439147293939" fill="#111111" rx="0"></rect>
  <rect x="141.41317441881816" y="146.1266135661121" width="4.713439147293939" height="4.713439147293939" fill="#111111" rx="0"></rect>
  <rect x="146.1266135661121" y="146.1266135661121" width="4.713439147293939" height="4.713439147293939" fill="#111111" rx="0"></rect>
  <rect x="150.84005271340604" y="146.1266135661121" width="4.713439147293939" height="4.713439147293939" fill="#111111" rx="0"></rect>
  <rect x="51.85783062023333" y="150.84005271340604" width="4.713439147293939" height="4.713439147293939" fill="#111111" rx="0"></rect>
  <rect x="65.99814806211515" y="150.84005271340604" width="4.713439147293939" height="4.713439147293939" fill="#111111" rx="0"></rect>
  <rect x="84.85190465129091" y="150.84005271340604" width="4.713439147293939" height="4.713439147293939" fill="#111111" rx="0"></rect>
  <rect x="89.56534379858485" y="150.84005271340604" width="4.713439147293939" height="4.713439147293939" fill="#111111" rx="0"></rect>
  <rect x="98.99222209317273" y="150.84005271340604" width="4.713439147293939" height="4.713439147293939" fill="#111111" rx="0"></rect>
  <rect x="103.70566124046667" y="150.84005271340604" width="4.713439147293939" height="4.713439147293939" fill="#111111" rx="0"></rect>
  <rect x="108.41910038776061" y="150.84005271340604" width="4.713439147293939" height="4.713439147293939" fill="#111111" rx="0"></rect>
  <rect x="113.13253953505453" y="150.84005271340604" width="4.713439147293939" height="4.713439147293939" fill="#111111" rx="0"></rect>
  <rect x="117.84597868234847" y="150.84005271340604" width="4.713439147293939" height="4.713439147293939" fill="#111111" rx="0"></rect>
  <rect x="122.55941782964241" y="150.84005271340604" width="4.713439147293939" height="4.713439147293939" fill="#111111" rx="0"></rect>
  <rect x="131.98629612423028" y="150.84005271340604" width="4.713439147293939" height="4.713439147293939" fill="#111111" rx="0"></rect>
  <rect x="136.69973527152422" y="150.84005271340604" width="4.713439147293939" height="4.713439147293939" fill="#111111" rx="0"></rect>
  <rect x="141.41317441881816" y="150.84005271340604" width="4.713439147293939" height="4.713439147293939" fill="#111111" rx="0"></rect>
  </g>
  </g>
  </g>
  </svg>